<?xml version="1.0" standalone="no"?>
<!DOCTYPE svg PUBLIC "-//W3C//DTD SVG 20010904//EN"
 "http://www.w3.org/TR/2001/REC-SVG-20010904/DTD/svg10.dtd">
<svg version="1.0" xmlns="http://www.w3.org/2000/svg"
 width="218.000000pt" height="172.000000pt" viewBox="0 0 218.000000 172.000000"
 preserveAspectRatio="xMidYMid meet">

<g transform="translate(0.000000,172.000000) scale(0.100000,-0.100000)"
fill="#000000" stroke="none">
<path d="M910 1693 c-8 -2 -21 -6 -28 -9 -8 -2 7 -22 40 -53 46 -42 51 -51 39
-65 -16 -19 -73 -36 -124 -36 -36 0 -37 1 -31 28 3 15 10 40 15 56 12 37 12
36 -5 30 -8 -3 -20 -30 -26 -60 -12 -59 -13 -59 -59 -43 -40 14 -39 27 6 66
33 27 35 32 20 38 -28 11 -123 -43 -199 -115 -77 -71 -140 -155 -183 -240 -29
-58 -75 -193 -75 -222 0 -22 -16 -24 -24 -3 -3 8 -10 15 -16 15 -16 0 -12 -26
9 -44 15 -14 19 -37 24 -154 3 -85 11 -152 20 -177 19 -50 29 -95 21 -95 -3 0
-25 16 -48 35 -43 35 -56 36 -56 5 0 -8 -22 -38 -50 -65 -27 -27 -50 -54 -50
-59 0 -5 -7 -17 -15 -25 -8 -9 -17 -35 -21 -59 -6 -38 -4 -44 26 -72 30 -28
37 -30 109 -30 42 0 93 4 113 9 37 9 38 8 74 -39 20 -26 58 -64 85 -85 27 -20
47 -41 44 -45 -3 -5 -28 -11 -56 -15 -43 -6 -54 -4 -73 14 -30 28 -36 27 -74
-12 -36 -37 -41 -75 -14 -100 29 -26 165 -22 302 8 133 29 152 31 144 10 -11
-28 51 -41 256 -56 84 -6 142 -6 155 0 11 5 58 14 105 21 47 6 90 15 95 19 6
5 33 17 60 27 71 26 263 218 328 329 63 106 65 109 114 124 24 8 50 22 59 33
10 10 22 18 28 18 6 0 39 25 74 56 94 84 86 116 -39 140 -82 15 -92 22 -64 38
33 18 122 112 140 146 23 44 31 125 15 155 -26 49 -113 61 -187 25 -62 -30
-57 -33 -102 72 -43 102 -167 247 -274 320 -152 104 -300 148 -486 147 -69 0
-133 -3 -141 -6z m122 -42 c20 -7 19 -8 -5 -37 l-26 -29 -43 44 -43 44 49 -7
c27 -4 58 -11 68 -15z m208 -15 c70 -24 80 -38 51 -75 l-19 -24 -48 41 c-27
22 -68 48 -91 57 -24 10 -43 22 -43 27 0 13 69 1 150 -26z m65 14 c13 -6 15
-9 5 -9 -8 0 -22 4 -30 9 -18 12 -2 12 25 0z m95 -37 c86 -39 165 -96 243
-175 42 -43 77 -82 77 -87 0 -4 -8 -15 -19 -25 -17 -16 -19 -14 -45 24 -51 77
-162 184 -240 230 -41 25 -76 49 -76 53 0 5 3 7 8 5 4 -2 27 -13 52 -25z
m-255 -12 c28 -16 66 -43 85 -60 l35 -31 -49 -46 c-45 -41 -104 -80 -110 -72
-2 2 -23 42 -48 89 l-45 86 26 30 c33 39 44 40 106 4z m249 -35 c109 -70 279
-257 261 -286 -4 -6 -31 -29 -62 -51 -51 -38 -57 -40 -84 -29 -16 7 -33 18
-37 25 -4 7 -22 16 -39 20 -39 8 -39 5 -18 -75 8 -30 13 -55 12 -55 -1 -1 -17
-7 -34 -14 -18 -8 -33 -17 -33 -22 0 -14 23 -11 47 6 26 18 26 19 48 -74 14
-59 15 -76 5 -79 -7 -3 -48 -29 -92 -58 -65 -43 -84 -52 -99 -43 -11 5 -19 17
-19 26 0 11 -3 13 -12 5 -9 -7 -22 -6 -43 3 -39 16 -19 23 158 50 44 7 46 16
15 104 -30 84 -78 136 -148 161 -65 24 -100 25 -176 5 -129 -33 -184 -93 -184
-202 -1 -54 -2 -57 -16 -38 -8 11 -17 36 -20 57 -4 21 -10 35 -15 32 -5 -3
-23 5 -40 18 -28 21 -42 23 -140 23 l-109 -1 6 71 c3 38 9 81 14 95 5 14 12
39 15 57 l6 32 41 -15 c23 -8 71 -17 108 -20 l67 -7 7 -81 c12 -138 25 -164
19 -36 l-5 116 87 12 c48 7 110 22 139 32 28 11 56 20 62 20 6 0 21 -29 33
-65 13 -36 27 -65 32 -65 12 0 2 42 -22 99 -11 24 -18 45 -17 46 61 36 110 71
133 95 16 16 32 30 37 30 13 0 97 -119 129 -182 26 -52 49 -74 49 -48 0 20
-71 144 -115 199 -44 57 -45 58 -30 87 8 16 15 35 15 42 0 17 5 16 64 -22z
m-770 -58 c-15 -23 -38 -67 -51 -98 l-25 -55 -24 28 c-13 16 -24 36 -24 45 0
28 140 153 148 132 2 -5 -9 -28 -24 -52z m418 -41 c22 -43 38 -84 35 -90 -6
-15 -163 -64 -229 -71 -58 -7 -61 0 -52 116 l7 88 41 1 c22 0 61 8 86 19 25
10 51 17 59 17 8 -1 32 -37 53 -80z m-311 56 l49 -18 0 -103 0 -104 -62 7
c-67 8 -148 38 -148 55 0 28 90 180 107 180 3 0 27 -8 54 -17z m-196 -208
c-16 -81 -34 -237 -29 -250 4 -9 -9 -39 -30 -70 -42 -63 -66 -151 -66 -243 0
-71 25 -203 46 -244 18 -35 18 -58 -1 -58 -21 0 -57 82 -41 92 7 5 2 16 -15
32 -33 31 -75 178 -85 298 -9 118 -6 124 48 93 24 -14 49 -25 56 -25 27 0 9
19 -43 46 -65 34 -66 40 -31 159 24 83 72 187 109 237 l21 28 34 -32 c28 -28
32 -38 27 -63z m1255 -86 c30 -58 31 -93 3 -103 -18 -7 -33 1 -33 18 0 7 -13
38 -30 70 -28 56 -29 59 -12 82 16 21 18 22 30 6 8 -9 26 -42 42 -73z m-82
-49 c31 -79 31 -78 -10 -102 l-37 -21 -48 53 c-59 65 -60 67 -31 75 13 4 25
11 28 14 15 20 64 50 70 44 4 -4 16 -33 28 -63z m-147 -56 c19 -17 44 -42 57
-56 l22 -25 -55 -36 c-84 -54 -92 -55 -103 -10 -18 71 -33 148 -36 180 l-3 31
42 -26 c23 -15 58 -41 76 -58z m-316 23 c7 -10 17 -17 22 -17 5 0 24 -20 42
-45 18 -25 27 -45 22 -45 -6 0 -11 -5 -11 -11 0 -5 4 -8 9 -4 8 4 31 -52 31
-77 0 -6 -50 -18 -142 -33 -35 -5 -37 -4 -43 27 -11 56 -26 87 -46 93 -10 4
-19 14 -20 23 0 12 -2 13 -6 3 -3 -7 -14 -22 -24 -32 -17 -17 -25 -51 -19 -89
4 -30 50 -78 81 -85 40 -9 119 -44 119 -53 0 -7 -10 -14 -134 -85 l-70 -40
-34 19 c-31 17 -95 91 -89 105 1 3 -6 14 -16 24 -12 11 -17 27 -14 42 2 13 -1
23 -7 23 -7 0 -12 29 -14 79 -3 80 -3 80 34 120 20 23 43 41 50 41 8 0 14 4
14 9 0 14 37 20 49 8 8 -8 11 -8 11 0 0 18 28 22 114 19 60 -2 82 -7 91 -19z
m750 -59 c46 -21 31 -80 -43 -180 -20 -26 -39 -48 -43 -48 -3 0 -9 35 -12 78
-4 42 -10 94 -13 114 -6 34 -5 37 22 41 53 8 63 7 89 -5z m-135 -60 c0 -10 -4
-18 -9 -18 -5 0 -12 8 -14 18 -2 9 -2 0 0 -20 3 -24 1 -38 -6 -38 -6 0 -11 -8
-12 -17 0 -10 -5 -3 -11 16 -7 25 -6 36 3 41 6 4 8 13 5 19 -4 6 -12 9 -17 6
-5 -4 -9 -2 -9 2 0 5 12 14 28 19 29 11 42 3 42 -28z m-1137 21 c56 -15 90
-69 117 -184 16 -68 21 -116 18 -171 -4 -89 -5 -90 -117 -130 -42 -15 -85 -37
-97 -51 -13 -15 -26 -22 -37 -17 -9 3 -17 1 -17 -4 0 -6 -21 -14 -46 -18 -54
-8 -67 4 -58 50 4 18 2 26 -4 22 -11 -6 -33 47 -41 99 -12 81 -4 201 17 260
12 33 27 62 32 63 6 2 10 11 10 19 0 9 6 13 14 10 11 -4 13 -1 9 10 -4 10 -2
14 4 10 6 -4 10 1 9 10 -2 29 113 43 187 22z m1043 -90 c-3 -18 -1 -29 6 -29
7 0 9 -17 6 -50 -3 -28 -1 -53 3 -56 13 -7 11 -204 -1 -204 -6 0 -10 30 -10
70 0 87 -25 214 -50 257 -29 49 -29 66 0 73 33 8 54 -20 46 -61z m-651 35
c-22 -16 -40 -8 -25 11 6 8 19 11 27 8 14 -5 14 -8 -2 -19z m565 -16 c0 -5 9
-28 21 -51 23 -47 38 -120 45 -217 7 -99 1 -111 -61 -142 -34 -16 -55 -22 -55
-15 0 7 -5 4 -11 -5 -5 -10 -14 -18 -18 -18 -16 0 -70 215 -57 227 3 4 0 13
-8 22 -12 14 -16 32 -28 115 -2 15 15 30 71 62 68 39 101 46 101 22z m-539
-10 c0 -1 4 -20 8 -41 6 -24 5 -39 -2 -44 -13 -8 -70 54 -64 70 5 15 60 30 58
15z m708 -21 c-6 -14 -17 -28 -24 -31 -8 -2 -4 10 8 28 25 39 33 40 16 3z
m-346 -139 c9 -46 27 -129 40 -185 13 -57 22 -105 19 -108 -3 -3 -14 -5 -24
-5 -10 0 -18 -4 -18 -10 0 -5 -4 -10 -9 -10 -7 0 -41 118 -41 143 0 4 7 7 15
7 16 0 20 12 8 23 -3 4 -12 2 -19 -4 -10 -8 -18 -1 -33 28 -11 21 -41 54 -66
73 -50 38 -53 46 -27 54 9 3 40 21 67 40 28 19 55 35 61 35 5 1 18 -36 27 -81z
m331 36 c3 -8 2 -12 -4 -9 -6 3 -10 10 -10 16 0 14 7 11 14 -7z m-845 -150
c38 -36 36 -39 -44 -64 -22 -7 -49 -20 -59 -29 -18 -15 -19 -15 -10 4 5 11 8
63 7 115 l-3 95 38 -45 c20 -25 52 -59 71 -76z m969 84 c21 -18 13 -46 -21
-72 -58 -44 -67 -34 -46 50 10 39 14 44 33 38 11 -4 27 -11 34 -16z m-607 -30
c61 -48 77 -73 105 -173 l24 -90 -22 -15 c-27 -19 -160 -71 -166 -65 -2 2 1
18 6 35 8 22 8 38 0 58 -7 15 -12 32 -13 37 -1 19 -50 67 -87 86 -21 11 -38
16 -38 12 0 -4 -5 -2 -12 5 -7 7 -22 12 -35 12 -34 0 -28 18 14 43 88 53 149
85 165 86 9 0 36 -14 59 -31z m639 -73 c15 -18 6 -45 -14 -45 -8 0 -19 -8 -25
-17 -9 -17 -11 -17 -31 3 -24 23 -19 45 13 60 32 16 43 16 57 -1z m-856 -59
l50 -22 -85 -12 c-168 -26 -151 -18 -143 -60 8 -44 62 -180 75 -188 12 -7 12
-24 -1 -24 -5 0 -22 18 -36 40 -32 49 -43 45 -19 -6 20 -42 9 -57 -35 -48 -20
5 -22 3 -10 -6 12 -9 10 -10 -12 -6 -16 4 -28 2 -28 -3 0 -5 -17 -13 -37 -18
-37 -9 -39 -8 -90 46 -37 41 -53 66 -58 95 -8 51 10 66 74 66 25 0 70 3 99 6
l52 7 0 43 c0 40 3 45 38 63 21 11 44 27 51 35 18 22 56 19 115 -8z m748 -11
c3 -13 1 -22 -3 -19 -5 3 -9 0 -9 -7 0 -8 -4 -8 -15 1 -8 7 -15 20 -15 29 0
14 2 14 10 1 8 -13 10 -12 10 3 0 26 17 20 22 -8z m-1554 -27 c23 -16 40 -33
37 -39 -4 -5 -2 -9 2 -9 8 0 45 -71 40 -76 -2 -2 -19 -5 -40 -7 -20 -2 -40 -7
-44 -10 -8 -9 -90 -9 -120 -1 -38 10 -30 52 22 109 25 27 43 55 40 63 -5 15 0
12 63 -30z m1505 0 c8 -30 5 -30 -16 -2 -14 19 -15 24 -4 24 8 0 17 -10 20
-22z m-594 -25 c49 -60 54 -138 8 -131 -28 4 -56 55 -61 109 -6 72 8 77 53 22z
m561 12 c10 -11 9 -18 -3 -30 -21 -20 -22 -20 -23 15 -1 33 7 38 26 15z m-640
-17 c0 -12 7 -45 16 -73 12 -38 25 -57 47 -70 l31 -18 -65 -25 c-35 -13 -79
-25 -97 -26 -30 -1 -36 4 -58 43 -31 53 -57 129 -51 145 3 6 33 17 68 25 35 7
69 14 74 16 25 8 35 3 35 -17z m590 -36 l-12 -26 -20 24 c-14 18 -18 20 -14 7
3 -10 -1 -25 -9 -33 -8 -9 -15 -11 -15 -5 0 6 -5 11 -11 11 -5 0 -8 -4 -5 -8
9 -14 -12 -35 -28 -29 -23 9 -31 34 -16 52 10 12 16 13 26 4 11 -9 14 -8 14 5
0 23 48 40 68 24 13 -11 15 -10 10 4 -9 22 4 32 15 12 6 -10 5 -26 -3 -42z
m-851 0 c-10 -2 -29 -2 -41 0 -22 3 -22 4 7 20 27 15 30 15 42 -1 10 -13 8
-17 -8 -19z m692 -29 c6 -33 5 -52 -2 -48 -4 3 -9 -1 -12 -7 -3 -10 -7 -10
-20 0 -13 11 -17 10 -25 -5 -12 -20 -19 -17 -24 12 -2 14 3 20 17 20 11 0 26
8 33 18 14 18 31 23 33 10z m159 -20 c0 -11 -79 -141 -91 -148 -5 -4 -17 -4
-25 -1 -13 5 -8 16 23 54 21 26 47 59 56 75 16 25 37 37 37 20z m-1072 -75
c43 -180 42 -173 7 -173 -20 0 -33 7 -41 22 -6 13 -13 21 -15 18 -4 -4 -24 24
-86 121 -13 20 -11 22 39 42 78 31 82 29 96 -30z m784 43 c-10 -6 -9 -10 7
-14 29 -7 27 -37 -1 -37 -19 0 -20 2 -8 10 13 8 12 10 -2 10 -11 0 -18 -8 -18
-19 0 -25 -18 -37 -33 -22 -8 8 -6 11 6 11 9 0 17 7 17 15 0 8 -7 15 -15 15
-14 0 -19 -14 -18 -48 1 -7 -2 -11 -5 -8 -3 3 -11 1 -18 -5 -8 -6 -21 -9 -29
-5 -8 3 -15 1 -15 -4 0 -17 -18 -11 -23 8 -4 13 -5 11 -6 -5 -1 -27 -18 -30
-38 -5 -13 16 -14 15 -9 -9 5 -22 2 -25 -17 -24 -32 2 -31 49 1 53 13 2 30 -2
38 -8 11 -10 14 -8 14 10 0 16 4 20 15 16 9 -3 18 1 21 9 10 25 22 17 16 -11
-4 -20 -1 -25 9 -22 8 3 16 13 18 23 5 27 36 56 53 50 9 -4 18 0 21 9 4 9 12
16 19 16 10 0 10 -2 0 -9z m197 -28 c-13 -16 -25 -30 -26 -32 -2 -2 -6 4 -9
14 -8 19 18 45 45 45 10 0 8 -7 -10 -27z m-1134 -39 c17 -33 87 -134 96 -140
20 -12 8 -34 -19 -34 -29 0 -49 18 -69 63 -7 15 -19 27 -28 27 -8 0 -15 5 -15
10 0 6 -5 10 -11 10 -5 0 -7 -4 -4 -10 14 -22 -22 4 -48 36 l-29 34 24 0 c12
1 34 7 48 15 30 17 42 15 55 -11z m1075 7 c0 -11 3 -28 7 -38 6 -16 5 -16 -10
-4 -9 7 -17 20 -17 27 0 8 -5 14 -11 14 -5 0 -7 5 -4 10 11 17 35 11 35 -9z
m-131 -66 c-18 -25 -36 -45 -41 -45 -5 0 -7 -4 -3 -9 3 -6 -3 -10 -12 -10 -10
1 -36 -6 -58 -14 -26 -10 -44 -12 -52 -6 -7 7 -14 6 -18 -1 -3 -5 -33 -10 -67
-10 -53 0 -59 2 -48 15 9 10 32 15 74 15 93 0 164 25 206 71 47 53 59 49 19
-6z m-282 -5 c7 -18 7 -32 2 -36 -8 -5 -29 35 -29 57 0 20 16 7 27 -21z m-417
-62 c0 -5 -7 -8 -15 -8 -12 0 -35 56 -35 85 1 11 50 -66 50 -77z m375 72 c3
-5 -1 -10 -10 -10 -9 0 -13 5 -10 10 3 6 8 10 10 10 2 0 7 -4 10 -10z m232
-16 c-3 -3 -12 -4 -19 -1 -8 3 -5 6 6 6 11 1 17 -2 13 -5z m-302 -26 c-1 -13
5 -26 14 -31 11 -5 7 -6 -11 -4 -16 3 -29 -1 -32 -9 -7 -19 -36 -18 -36 1 0 9
6 12 15 9 11 -5 13 -2 9 10 -4 10 -13 15 -21 12 -9 -4 -13 -1 -10 6 2 7 14 12
26 11 11 -2 21 2 21 7 0 6 6 10 13 10 8 0 13 -10 12 -22z m85 2 c0 -11 -7 -20
-16 -20 -8 0 -12 5 -8 11 3 6 0 15 -7 20 -10 6 -8 9 9 9 15 0 22 -6 22 -20z
m-635 -21 c11 -16 1 -19 -13 -3 -7 8 -8 14 -3 14 5 0 13 -5 16 -11z m435 -9
c-13 -8 -12 -10 3 -10 10 0 17 -8 17 -20 0 -13 -6 -20 -17 -19 -12 0 -14 2 -5
6 10 4 8 9 -7 20 -27 19 -27 33 2 33 18 0 19 -2 7 -10z m-50 -15 c-9 -11 -9
-15 -1 -15 7 0 10 -4 7 -9 -4 -5 0 -12 6 -14 7 -3 3 -6 -10 -6 -13 -1 -21 3
-17 8 3 5 1 12 -5 16 -5 3 -10 0 -10 -8 0 -20 -25 -28 -39 -14 -8 8 -11 5 -11
-12 0 -19 -4 -22 -21 -18 -12 3 -28 0 -36 -9 -8 -8 -20 -11 -26 -7 -9 5 -7 8
3 11 9 1 21 17 28 34 8 23 16 29 31 25 12 -3 22 1 25 10 4 9 14 13 26 10 11
-3 23 -1 26 4 3 5 12 9 21 9 13 0 13 -3 3 -15z m-147 -31 c3 -4 -1 -13 -9 -21
-17 -18 -29 -11 -21 12 7 16 19 20 30 9z m-53 -15 c-11 -8 -12 -12 -2 -16 6
-2 10 -9 6 -14 -3 -5 0 -9 6 -9 6 0 8 -4 5 -10 -3 -5 -12 -10 -19 -10 -18 0
-28 53 -13 62 19 12 34 9 17 -3z m-50 -19 c-12 -8 -12 -10 5 -10 17 0 17 -2 5
-10 -13 -9 -13 -11 0 -21 12 -8 12 -9 -5 -7 -12 2 -19 11 -19 21 1 9 -2 17 -7
17 -5 0 -9 -11 -9 -25 0 -14 -4 -25 -10 -25 -5 0 -10 5 -10 12 0 6 -7 4 -18
-5 -30 -27 -54 -22 -50 11 3 30 38 42 64 22 11 -10 14 -9 14 3 0 9 8 18 18 20
30 8 37 7 22 -3z m405 0 c3 -5 1 -10 -4 -10 -6 0 -11 5 -11 10 0 6 2 10 4 10
3 0 8 -4 11 -10z m-55 -4 c0 -2 -11 -6 -25 -8 -14 -3 -25 -1 -25 3 0 5 11 9
25 9 14 0 25 -2 25 -4z m-480 -42 c0 -14 -4 -22 -10 -19 -5 3 -10 1 -10 -4 0
-6 -4 -11 -10 -11 -5 0 -10 10 -10 22 l0 21 -19 -21 c-24 -28 -31 -28 -31 1 0
32 4 35 50 35 36 1 40 -2 40 -24z"/>
<path d="M1760 1211 c0 -12 5 -21 10 -21 6 0 10 6 10 14 0 8 -4 18 -10 21 -5
3 -10 -3 -10 -14z"/>
<path d="M1785 1170 c3 -5 8 -10 11 -10 2 0 4 5 4 10 0 6 -5 10 -11 10 -5 0
-7 -4 -4 -10z"/>
<path d="M576 917 c-19 -14 -19 -16 15 -137 6 -19 11 -52 12 -72 2 -32 6 -38
24 -38 63 0 77 31 59 137 -11 62 -19 82 -40 100 -31 26 -45 28 -70 10z m71
-39 c6 -7 15 -42 21 -78 8 -53 7 -69 -4 -87 -8 -13 -18 -23 -23 -23 -11 0 -54
187 -47 206 6 16 33 7 53 -18z"/>
<path d="M1961 651 c-7 -5 -22 -6 -32 -4 -10 3 -19 1 -19 -5 0 -14 34 -25 38
-13 2 6 12 11 23 11 10 0 19 5 19 10 0 12 -10 13 -29 1z"/>
<path d="M930 455 c0 -8 4 -15 10 -15 5 0 7 7 4 15 -4 8 -8 15 -10 15 -2 0 -4
-7 -4 -15z"/>
<path d="M810 290 c-9 -6 -10 -10 -3 -10 6 0 15 5 18 10 8 12 4 12 -15 0z"/>
<path d="M848 283 c7 -3 16 -2 19 1 4 3 -2 6 -13 5 -11 0 -14 -3 -6 -6z"/>
<path d="M1630 486 c0 -8 5 -18 10 -21 6 -3 10 1 10 9 0 8 -4 18 -10 21 -5 3
-10 -1 -10 -9z"/>
<path d="M457 347 c-3 -8 -1 -20 4 -28 6 -10 9 -7 9 14 0 29 -5 35 -13 14z"/>
<path d="M800 180 c0 -11 5 -20 10 -20 6 0 10 9 10 20 0 11 -4 20 -10 20 -5 0
-10 -9 -10 -20z"/>
<path d="M555 130 c-7 -12 2 -30 16 -30 12 0 12 27 0 35 -5 3 -12 1 -16 -5z"/>
</g>
</svg>
